<svg width="69" height="68" viewBox="0 0 69 68" fill="none" xmlns="http://www.w3.org/2000/svg">
<path fill-rule="evenodd" clip-rule="evenodd" d="M34.4062 0C53.1839 0 68.4062 15.2223 68.4062 34C68.4062 52.7777 53.1839 68 34.4062 68C15.6286 68 0.40625 52.7777 0.40625 34C0.40625 15.2223 15.6286 0 34.4062 0ZM34.4062 2.125C16.8022 2.125 2.53125 16.3959 2.53125 34C2.53125 51.6041 16.8022 65.875 34.4062 65.875C52.0103 65.875 66.2812 51.6041 66.2812 34C66.2812 16.3959 52.0103 2.125 34.4062 2.125ZM47.1739 32.9309H17.4062V35.0625H47.1739L37.5975 44.625H40.786L51.4062 33.9924L40.786 23.375H37.5975L47.1739 32.9309Z" fill="#DB3340"/>
</svg>
