<svg width="250" height="108" viewBox="0 0 250 108" fill="none" xmlns="http://www.w3.org/2000/svg">
<path fill-rule="evenodd" clip-rule="evenodd" d="M121.445 25.6457C119.886 25.6815 118.655 26.098 117.682 27.0653C115.72 29.0142 115.384 31.3703 116.258 33.8846C117.592 37.7201 122.318 38.7498 125.136 35.8754C126.951 34.0252 127.354 30.7843 126.041 28.4522C124.993 26.5918 123.362 25.7 121.445 25.6457ZM110.943 33.7437H107.559V41.5689H102.43V21.6727H107.534V29.4103H110.935C112.224 23.2563 117.936 20.3826 122.881 21.1181C128.081 21.8913 131.945 26.1914 131.883 31.6623C131.822 37.0506 128.099 41.3136 122.795 42.0532C117.55 42.7841 112.195 39.7066 110.943 33.7437Z" fill="#104D9C"/>
<path fill-rule="evenodd" clip-rule="evenodd" d="M144.801 38.0494C145.116 38.0158 145.435 38.0013 145.746 37.9455C147.612 37.6114 148.971 36.6042 149.608 34.8018C150.264 32.95 150.044 31.17 148.709 29.6721C147.321 28.1141 145.506 27.7544 143.522 28.1317C142.049 28.4122 140.854 29.1533 140.121 30.4998C138.583 33.3242 140.142 37.9834 144.801 38.0494ZM153.196 13.7012V17.9149C152.519 17.9914 151.836 18.0419 151.163 18.1492C148.516 18.5709 145.941 19.2208 143.733 20.833C141.897 22.174 140.66 23.9494 140.132 26.1853C140.096 26.3369 140.081 26.4941 140.043 26.7401C140.284 26.5173 140.455 26.3462 140.64 26.1911C143.244 24.0012 147.109 23.6645 150.137 25.3098C154.603 27.7365 155.606 32.8674 153.846 36.7981C152.487 39.834 150.01 41.4367 146.81 41.986C144.515 42.38 142.256 42.1858 140.136 41.166C137.217 39.7615 135.554 37.3657 134.929 34.2321C134.45 31.8309 134.665 29.4277 135.091 27.0463C135.62 24.0961 136.768 21.4271 138.861 19.2211C140.635 17.3514 142.824 16.1541 145.22 15.2949C147.564 14.4546 149.997 14.0276 152.465 13.7733C152.699 13.7493 152.934 13.7271 153.196 13.7012Z" fill="#104D9C"/>
<path fill-rule="evenodd" clip-rule="evenodd" d="M218.187 37.5225C221.516 37.5361 224.161 34.9349 224.191 31.6169C224.221 28.3292 221.577 25.671 218.251 25.6442C214.889 25.6167 212.321 28.1649 212.293 31.5571C212.265 34.9404 214.802 37.5086 218.187 37.5225ZM224.164 24.4564C225.697 23.199 227.281 21.9002 228.92 20.5562V41.572H224.056V38.8533C224.011 38.8194 223.966 38.7855 223.921 38.7516C223.88 38.8407 223.855 38.9433 223.795 39.017C221.869 41.3808 219.358 42.3544 216.351 42.1084C211.177 41.6857 207.532 37.4294 207.256 32.4551C207.088 29.4036 207.878 26.6581 209.922 24.339C211.585 22.4511 213.693 21.3882 216.188 21.0858C218.394 20.8182 220.448 21.226 222.232 22.5864C222.928 23.117 223.502 23.8069 224.164 24.4564Z" fill="#104D9C"/>
<path fill-rule="evenodd" clip-rule="evenodd" d="M158.613 41.5994V21.5969H163.753V33.9808C163.78 33.9931 163.807 34.0052 163.833 34.0172C163.924 33.8997 164.017 33.7838 164.105 33.6645C166.981 29.7479 169.86 25.8329 172.729 21.9104C172.91 21.6623 173.091 21.5513 173.408 21.5568C174.584 21.5775 175.76 21.5652 176.961 21.5652V41.5791H171.838V29.0592C171.669 29.2744 171.572 29.3894 171.484 29.5103C168.607 33.4262 165.728 37.3413 162.86 41.264C162.676 41.5153 162.486 41.6115 162.177 41.6068C161.001 41.5886 159.825 41.5994 158.613 41.5994Z" fill="#104D9C"/>
<path fill-rule="evenodd" clip-rule="evenodd" d="M245.174 25.7981C243.585 25.7981 242.022 25.7284 240.468 25.819C239.108 25.8986 238.171 26.7133 237.881 27.8172C237.411 29.6012 238.489 31.1984 240.371 31.3285C241.939 31.437 243.519 31.3765 245.094 31.3889C245.116 31.3889 245.138 31.363 245.174 31.3402V25.7981ZM245.188 41.5748V35.32C244.157 35.32 243.155 35.3107 242.153 35.3338C242.046 35.3363 241.914 35.5111 241.843 35.6347C240.756 37.5127 239.672 39.3928 238.601 41.2804C238.467 41.5168 238.325 41.609 238.048 41.6065C236.459 41.5924 234.869 41.5995 233.28 41.5995H232.863C234.251 39.2572 235.603 36.9748 236.969 34.6683C236.63 34.4879 236.308 34.3412 236.011 34.1547C233.902 32.8313 232.962 30.8691 232.993 28.4319C233.043 24.6121 235.842 22.1333 239.407 21.7304C239.958 21.6681 240.517 21.65 241.072 21.6484C243.893 21.6404 246.715 21.6447 249.536 21.6447H250V41.5748H245.188Z" fill="#104D9C"/>
<path fill-rule="evenodd" clip-rule="evenodd" d="M203.241 20.8958V41.5759H198.845V32.4073C198.816 32.3913 198.787 32.3749 198.759 32.3586C196.741 34.5692 194.724 36.7798 192.679 39.0219C190.696 36.8045 188.734 34.6099 186.696 32.3308V41.5759H182.242V20.8662C185.743 25.0152 189.2 29.1128 192.679 33.2353C196.195 29.1273 199.687 25.0479 203.241 20.8958Z" fill="#104D9C"/>
<mask id="mask0_0_157" style="mask-type:luminance" maskUnits="userSpaceOnUse" x="0" y="54" width="250" height="54">
<path fill-rule="evenodd" clip-rule="evenodd" d="M0 54.1865H250V107.419H0V54.1865Z" fill="white"/>
</mask>
<g mask="url(#mask0_0_157)">
<path fill-rule="evenodd" clip-rule="evenodd" d="M247.118 107.419H2.88173C1.29012 107.419 0 106.129 0 104.537V57.0686C0 55.4769 1.29012 54.1865 2.88173 54.1865H247.118C248.71 54.1865 250 55.4769 250 57.0686V104.537C250 106.129 248.71 107.419 247.118 107.419Z" fill="#E52931"/>
</g>
<path fill-rule="evenodd" clip-rule="evenodd" d="M165.409 93.0637C165.5 93.0844 165.546 93.1035 165.591 93.1035C168.438 93.0983 171.286 93.1393 174.132 93.0662C175.655 93.027 176.983 92.3803 177.914 91.1343C179.153 89.477 179.309 87.648 178.442 85.7931C177.574 83.9349 176.037 82.9398 173.991 82.8988C171.223 82.8433 168.454 82.8831 165.685 82.884C165.597 82.884 165.508 82.9065 165.409 82.92V93.0637ZM165.39 63.1598H165.39V70.5722V78.0037C165.5 78.025 165.588 78.0564 165.675 78.0568C167.973 78.058 170.272 78.0956 172.568 78.0423C174.375 78 175.776 77.1541 176.609 75.536C177.441 73.9194 177.387 72.273 176.404 70.7316C175.517 69.341 174.151 68.7044 172.541 68.6233C171.429 68.5672 167.112 68.6125 167.112 68.6125L167.117 63.1552C167.117 63.1552 175.19 63.0926 176.926 63.5088C183.647 65.1201 184.831 71.592 183.317 75.4827C182.686 77.1054 181.543 78.2818 180.018 79.0981C179.907 79.1573 179.794 79.2125 179.685 79.2735C179.659 79.288 179.642 79.3182 179.603 79.3617C180.82 79.8019 181.929 80.4107 182.876 81.2899C184.517 82.8125 185.385 84.7287 185.675 86.9149C185.918 88.7458 185.814 90.5556 185.175 92.3116C184.225 94.9248 182.359 96.6113 179.812 97.5975C177.984 98.3056 176.07 98.5537 174.123 98.5571C169.071 98.5658 164.019 98.5608 158.967 98.5605C158.873 98.5605 158.779 98.5507 158.648 98.5433V69.9011C158.648 66.1778 161.667 63.1598 165.39 63.1598Z" fill="#FEFEFE"/>
<path fill-rule="evenodd" clip-rule="evenodd" d="M81.9318 91.4574C81.9318 92.3467 82.6476 93.0693 83.5366 93.0764C85.291 93.0906 88.0698 93.1051 89.7095 93.0721C90.8069 93.0502 91.7851 92.594 92.6094 91.855C94.197 90.432 94.7306 88.0519 93.9393 85.9627C93.1889 83.9818 91.3689 82.7123 89.1974 82.6957C86.8854 82.6781 84.5727 82.6904 82.2601 82.6916C82.1562 82.692 81.9318 82.7228 81.9318 82.7228V91.4574ZM74.9531 91.7511V63.166H81.908V77.4985C82.1356 77.4985 82.3048 77.4985 82.474 77.4985C84.9763 77.5003 87.4791 77.4711 89.9808 77.513C92.094 77.5487 94.1353 77.9643 96.0192 78.976C99.0276 80.5923 100.714 83.1257 101.138 86.4926C101.455 89.0026 101.041 91.3821 99.6842 93.5561C98.2643 95.8302 96.1632 97.2362 93.5832 98.0069C92.3033 98.3892 90.9709 98.5587 89.6352 98.5596C87.5605 98.5609 84.521 98.5578 81.745 98.5538C77.9918 98.5482 74.9531 95.5043 74.9531 91.7511Z" fill="#FEFEFE"/>
<path fill-rule="evenodd" clip-rule="evenodd" d="M202.852 63.2524H209.788V91.4624C209.788 92.135 210.329 92.6816 211.001 92.6875C212.468 92.7001 214.909 92.7158 216.256 92.6973C218.317 92.6693 220.11 91.992 221.3 90.2281C222.673 88.1941 222.77 85.9933 221.717 83.8132C220.68 81.664 218.832 80.6464 216.481 80.5314C215.607 80.4888 211.465 80.5246 211.465 80.5246L211.419 74.7723C211.419 74.7723 220.27 72.939 225.46 77.7893C227.609 79.7175 228.71 82.1957 229.021 85.0312C229.289 87.4755 229.079 89.876 228.084 92.1557C226.914 94.8392 224.838 96.5393 222.128 97.5239C220.031 98.2857 217.852 98.5496 215.638 98.556C214.091 98.5607 211.924 98.5604 209.812 98.5579C205.967 98.5536 202.852 95.4354 202.852 91.5897V63.2524Z" fill="#FEFEFE"/>
<path fill-rule="evenodd" clip-rule="evenodd" d="M119.422 98.5614C119.534 98.3268 119.611 98.1582 119.695 97.9939C121.234 95.0039 122.77 92.0119 124.322 89.029C124.484 88.7189 124.501 88.4735 124.359 88.1523C120.782 80.0114 117.214 71.8666 113.646 63.7221C113.571 63.5525 113.506 63.3793 113.418 63.1641C113.61 63.1555 113.759 63.1428 113.908 63.1425C116.017 63.1413 118.126 63.1481 120.234 63.1348C120.557 63.1329 120.725 63.2112 120.853 63.5346C124.222 72.0167 127.606 80.4933 130.973 88.976C131.048 89.1647 131.04 89.4452 130.955 89.6298C129.634 92.4986 128.297 95.36 126.95 98.2158C126.88 98.3629 126.68 98.5457 126.539 98.5469C124.195 98.5673 121.851 98.5614 119.422 98.5614Z" fill="#FEFEFE"/>
<path fill-rule="evenodd" clip-rule="evenodd" d="M142.57 63.1419C139.688 69.3234 132.065 87.0663 132.065 87.0663L128.934 79.087C128.934 79.087 133.153 68.053 135.124 63.514C135.191 63.3614 135.384 63.1589 135.52 63.1576C137.846 63.1357 140.172 63.1419 142.57 63.1419Z" fill="#FEFEFE"/>
<path fill-rule="evenodd" clip-rule="evenodd" d="M96.3833 63.1652V69.2647H83.4648V63.1338L96.3833 63.1652Z" fill="#FEFEFE"/>
<path fill-rule="evenodd" clip-rule="evenodd" d="M50.6025 83.4045C48.8188 91.8557 39.4063 95.0759 32.8839 90.565C27.8409 87.0772 26.6201 80.3381 29.3154 75.2815C29.3203 75.2722 29.3255 75.2633 29.3305 75.2541C29.3903 75.1428 29.4553 75.0333 29.5188 74.9236C29.9273 74.2318 30.3968 73.5851 30.9258 72.9923C30.9988 72.9115 31.0719 72.8304 31.1477 72.7512C31.1819 72.7145 31.2165 72.6778 31.2513 72.6418C31.2901 72.6041 31.3225 72.5718 31.3459 72.5443C33.6441 70.2295 36.9482 68.8842 41.2039 69.236C43.6491 69.5606 45.8162 70.7376 47.6816 72.6991C50.5405 75.7054 51.4527 79.3756 50.6025 83.4045ZM57.6647 78.1157C56.9945 73.512 54.8403 69.6765 51.2708 66.6859C48.3437 64.2333 45.0255 62.8748 41.375 62.4953V62.491C34.4573 61.753 28.1458 64.619 24.3577 70.0177C24.2773 70.1309 24.198 70.2446 24.1201 70.3593C24.0976 70.3929 24.075 70.4262 24.0529 70.4601C21.3148 74.5552 20.2028 79.7283 21.2738 84.632C23.4206 94.4619 32.6416 100.708 42.526 99.0489C52.2912 97.4099 59.1447 88.2785 57.6647 78.1157Z" fill="#FEFEFE"/>
<path fill-rule="evenodd" clip-rule="evenodd" d="M100.767 0.943825C97.3023 -1.06487 91.6137 0.59147 89.1796 1.68984C80.3495 5.66809 71.987 12.7639 63.8908 19.6334C54.6803 27.4515 45.9803 35.359 38.5682 36.3525L38.3157 36.3942C34.5921 37.1214 27.0678 37.3843 24.2354 37.3849H24.0516C18.2068 37.3849 8.40346 36.6032 7.37352 36.4987C4.96438 36.2548 6.09265 34.9943 6.9589 34.6241C10.7007 32.5611 17.8002 30.3604 28.4803 27.4617C31.8922 28.3396 40.5371 30.8672 47.033 25.6361L47.7013 25.0978C37.9384 26.7089 31.6743 23.5704 29.414 22.1317L28.5268 21.82L27.1757 22.2359C14.4037 26.1672 8.81068 28.3803 4.35369 30.9532C2.20226 32.1708 -0.217981 34.7548 0.0156894 37.1796C0.202502 39.1091 1.92451 41.287 9.06748 41.9501L9.14608 41.9566C10.0123 42.0235 17.791 42.6089 24.0544 42.6089H24.2375C27.8381 42.6083 33.4456 42.8679 38.0006 42.005C47.747 40.64 57.234 32.5867 67.2837 24.0562C74.5099 17.9253 83.6267 11.2194 90.7379 9.17962C88.1158 25.7723 88.3988 42.0913 88.3988 42.0913L93.021 42.0673C93.021 42.0673 94.0201 7.66569 100.767 0.943825Z" fill="#114E9B"/>
</svg>
