<svg width="771" height="170" viewBox="0 0 771 170" fill="none" xmlns="http://www.w3.org/2000/svg">
<path fill-rule="evenodd" clip-rule="evenodd" d="M50.8258 147L60.6958 121.38H116.556L126.426 147H177.666L113.406 0H64.6858L0.425781 147H50.8258ZM88.6258 48.72L102.906 85.68H74.3458L88.6258 48.72ZM245.916 108.78H236.886V147H189.426V32.13H236.886V72.45H247.176L272.376 32.13H322.356L285.396 87.15L324.666 147H268.806L245.916 108.78ZM472.716 169.68V109.83H457.386V32.13H410.136V109.83H382.416V32.13H335.166V147H428.826V169.68H472.716ZM486.576 32.13H533.826V84L573.516 32.13H617.196V147H569.946V94.92L530.466 147H486.576V32.13ZM686.706 32.13H639.456V147H683.346L722.826 94.92V147H770.076V32.13H726.396L686.706 84V32.13Z" fill="white"/>
<mask id="mask0_0_1183" style="mask-type:luminance" maskUnits="userSpaceOnUse" x="0" y="0" width="771" height="170">
<path fill-rule="evenodd" clip-rule="evenodd" d="M50.8258 147L60.6958 121.38H116.556L126.426 147H177.666L113.406 0H64.6858L0.425781 147H50.8258ZM88.6258 48.72L102.906 85.68H74.3458L88.6258 48.72ZM245.916 108.78H236.886V147H189.426V32.13H236.886V72.45H247.176L272.376 32.13H322.356L285.396 87.15L324.666 147H268.806L245.916 108.78ZM472.716 169.68V109.83H457.386V32.13H410.136V109.83H382.416V32.13H335.166V147H428.826V169.68H472.716ZM486.576 32.13H533.826V84L573.516 32.13H617.196V147H569.946V94.92L530.466 147H486.576V32.13ZM686.706 32.13H639.456V147H683.346L722.826 94.92V147H770.076V32.13H726.396L686.706 84V32.13Z" fill="white"/>
</mask>
<g mask="url(#mask0_0_1183)">
</g>
</svg>
