<svg width="24" height="24" viewBox="0 0 24 24" fill="none" xmlns="http://www.w3.org/2000/svg">
<g clip-path="url(#clip0_0_975)">
<path fill-rule="evenodd" clip-rule="evenodd" d="M24 21.0964C24 19.1673 22.6869 17.4859 20.8158 17.0185L16.2181 15.8695L16.2243 15.2833C16.2296 14.7569 16.4483 14.2325 16.8468 13.7958C18.1591 12.3574 18.7991 10.9712 19.0069 9.35909C19.085 8.75304 19.0997 8.29281 19.0997 7.25245C19.0997 3.27444 15.9693 0.0724969 12.0236 0C8.03086 0.0724936 4.90032 3.27426 4.90032 7.25147C4.90032 8.29184 4.91499 8.75207 4.99311 9.35811C5.20091 10.9702 5.84088 12.3564 7.15313 13.7947C7.55171 14.2315 7.77044 14.7559 7.77571 15.2817L7.78189 15.8685L3.18407 17.0175C1.31261 17.4864 0 19.1677 0 21.0964V22.7143C0 23.4244 0.575634 24 1.28571 24H22.7143C23.4244 24 24 23.4244 24 22.7143V21.0964ZM20.5579 18.9686C21.4053 19.1611 22 20.8534 22 21.6477V22H2V21.6477C2 20.8533 2.59497 19.1606 3.44298 18.9674L8.08526 17.6856C9.26875 17.4172 10.0949 16.4443 10.0817 15.3355L10.0715 15.4527C10.0605 14.4531 9.70708 14.1295 9.07977 13.5553C8.92361 13.4123 8.75048 13.2538 8.56143 13.0654C7.44688 11.9549 6.96452 10.0051 6.80068 8.84962C6.73145 8.36136 6.71705 7.95056 6.71705 6.96402C6.71705 4.23004 9.0623 2.04953 12.0276 2C14.9378 2.04953 17.283 4.23017 17.283 6.96505C17.283 7.9516 17.2686 8.36239 17.1993 8.85065C17.0355 10.0061 16.5531 11.956 15.4385 13.0666C15.2495 13.2548 15.0765 13.4132 14.9204 13.5562C14.293 14.1305 13.9395 14.4542 13.9285 15.4544L13.9183 15.337C13.9051 16.4463 14.7311 17.4182 15.9154 17.6868L20.5579 18.9686Z" fill="black"/>
</g>
<defs>
<clipPath id="clip0_0_975">
<rect width="24" height="24" fill="white"/>
</clipPath>
</defs>
</svg>
