<svg width="24" height="22" viewBox="0 0 24 22" fill="none" xmlns="http://www.w3.org/2000/svg">
<path d="M19.2453 1.21403L19.2465 1.21438C21.1216 1.74877 23.2486 3.7947 23.0268 7.0229C22.8059 10.2388 20.2355 14.9396 12.0423 20.6427C3.85066 14.9396 1.2801 10.2388 1.05912 7.02297C0.837304 3.79493 2.96416 1.74899 4.84106 1.21442L4.84243 1.21403C6.74701 0.668638 8.3111 1.25205 9.4514 2.02062C10.0241 2.40662 10.4756 2.83161 10.7836 3.1609C10.9367 3.32463 11.052 3.46218 11.1268 3.55566C11.1642 3.60233 11.1912 3.63778 11.2077 3.65976L11.2243 3.68225L11.2255 3.68388L11.2261 3.68473L11.2262 3.68484L11.2265 3.68533L12.0418 4.84324L12.8577 3.68575L12.8581 3.68529L12.8582 3.68515L12.8592 3.68374L12.86 3.68266L12.8766 3.66016C12.8931 3.63817 12.9202 3.60271 12.9575 3.55603C13.0324 3.46253 13.1479 3.32497 13.3012 3.16122C13.6095 2.83189 14.0614 2.40684 14.6345 2.02078C15.7757 1.25204 17.3407 0.668634 19.2453 1.21403Z" stroke="#979797" stroke-width="2"/>
</svg>
