<svg width="15" height="19" viewBox="0 0 15 19" fill="none" xmlns="http://www.w3.org/2000/svg">
<g clip-path="url(#clip0_0_1760)">
<mask id="path-1-inside-1_0_1760" fill="white">
<path fill-rule="evenodd" clip-rule="evenodd" d="M15 3V2C15 2.12293 14.9367 2.11085 14.7488 2.07496C14.5945 2.0455 14.3562 2 14 2H10V1C10.3125 0.447715 9.89277 0 9 0H6C5.10723 0 4.6875 0.447715 5 1V2H1C0.643773 2 0.405491 2.0455 0.251211 2.07496C0.0632898 2.11085 0 2.12293 0 2V3C0 3.77614 0.209867 4 1 4H14C14.7901 4 15 3.77614 15 3ZM3 19C2.68802 19.0024 1.87624 18.2474 2 17L1 6H14L13 17C13.1423 18.2474 12.3305 19.0024 12 19H3Z"/>
</mask>
<path d="M14.7488 2.07496L14.9364 1.09271H14.9364L14.7488 2.07496ZM10 2H9V3H10V2ZM10 1L9.12967 0.507538L9 0.736698V1H10ZM5 1H6V0.736698L5.87033 0.507538L5 1ZM5 2V3H6V2H5ZM0.251211 2.07496L0.0636439 1.09271H0.0636439L0.251211 2.07496ZM2 17L2.99511 17.0987L3.0045 17.0041L2.99589 16.9095L2 17ZM3 19V18L2.99234 18L3 19ZM1 6V5H-0.0950328L0.00410679 6.09054L1 6ZM14 6L14.9959 6.09054L15.095 5H14V6ZM13 17L12.0041 16.9095L11.9948 17.0115L12.0064 17.1134L13 17ZM12 19L12.0072 18H12V19ZM14 2V3H16V2H14ZM14.5612 3.05721C14.598 3.06424 14.6694 3.07825 14.7368 3.08713C14.7894 3.09404 14.9517 3.11546 15.1409 3.07763C15.3871 3.02841 15.6775 2.87762 15.8564 2.56304C15.9953 2.31877 16 2.08421 16 2H14C14 1.97725 13.9967 1.78729 14.1179 1.57421C14.2791 1.29081 14.5419 1.1578 14.7488 1.11644C14.8334 1.09954 14.9002 1.09891 14.9341 1.0997C14.9694 1.10052 14.9932 1.10362 14.9978 1.10422C15.0005 1.10458 14.9935 1.10363 14.9364 1.09271L14.5612 3.05721ZM14 3C14.2622 3 14.428 3.03178 14.5612 3.05721L14.9364 1.09271C14.761 1.05923 14.4503 1 14 1V3ZM10 3H14V1H10V3ZM9 1V2H11V1H9ZM9 1C9.14315 1 9.232 1.01835 9.27531 1.03204C9.32109 1.04652 9.29121 1.04732 9.238 0.993066C9.17529 0.929113 9.11453 0.821191 9.10417 0.688704C9.09467 0.567099 9.13322 0.501255 9.12967 0.507538L10.8703 1.49246C11.023 1.2226 11.1263 0.893688 11.0981 0.532806C11.069 0.161042 10.9061 -0.162362 10.6659 -0.40728C10.2182 -0.863903 9.56881 -1 9 -1V1ZM6 1H9V-1H6V1ZM5.87033 0.507538C5.86678 0.501255 5.90533 0.567099 5.89583 0.688704C5.88547 0.821191 5.82472 0.929113 5.762 0.993066C5.70879 1.04732 5.67891 1.04652 5.72469 1.03204C5.768 1.01835 5.85685 1 6 1V-1C5.43119 -1 4.78185 -0.863903 4.33405 -0.40728C4.09387 -0.162362 3.93098 0.161042 3.90191 0.532806C3.8737 0.893688 3.97697 1.2226 4.12967 1.49246L5.87033 0.507538ZM6 2V1H4V2H6ZM1 3H5V1H1V3ZM0.438779 3.05721C0.571982 3.03178 0.737806 3 1 3V1C0.549739 1 0.238999 1.05923 0.0636439 1.09271L0.438779 3.05721ZM-1 2C-1 2.08421 -0.99534 2.31877 -0.8564 2.56304C-0.677465 2.87762 -0.387098 3.02841 -0.14091 3.07763C0.0482962 3.11546 0.210625 3.09404 0.263154 3.08713C0.330583 3.07825 0.401976 3.06424 0.438779 3.05721L0.0636439 1.09271C0.00648616 1.10363 -0.00050245 1.10458 0.00220643 1.10422C0.00679099 1.10362 0.0305813 1.10052 0.0659116 1.0997C0.0998383 1.09891 0.166624 1.09954 0.25118 1.11644C0.458055 1.1578 0.720855 1.29081 0.882051 1.57421C1.00325 1.78729 1 1.97725 1 2H-1ZM1 3V2H-1V3H1ZM1 3C0.962294 3 0.928859 2.99933 0.899226 2.99812C0.86957 2.99692 0.844563 2.99521 0.823636 2.99324C0.80269 2.99128 0.786802 2.98915 0.775263 2.98726C0.76372 2.98538 0.75755 2.98391 0.755856 2.98348C0.752074 2.98253 0.77064 2.98677 0.80187 3.00319C0.817693 3.01152 0.836145 3.02264 0.855982 3.03717C0.875911 3.05177 0.895801 3.06874 0.91486 3.08802C0.933916 3.1073 0.950577 3.1273 0.964807 3.14719C0.978969 3.16698 0.98973 3.18528 0.997712 3.20083C1.01344 3.23146 1.01729 3.24929 1.01617 3.24475C1.01567 3.2427 1.01419 3.23623 1.01233 3.22445C1.01047 3.21267 1.00839 3.19663 1.00648 3.17561C1.00458 3.15461 1.00294 3.12962 1.00179 3.10009C1.00063 3.07058 1 3.03737 1 3H-1C-1 3.3993 -0.966573 4.02966 -0.50746 4.49408C-0.045432 4.96145 0.587836 5 1 5V3ZM14 3H1V5H14V3ZM14 3C14 3.03737 13.9994 3.07058 13.9982 3.10009C13.9971 3.12962 13.9954 3.15461 13.9935 3.17561C13.9916 3.19663 13.9895 3.21267 13.9877 3.22445C13.9858 3.23623 13.9843 3.2427 13.9838 3.24475C13.9827 3.24929 13.9866 3.23146 14.0023 3.20083C14.0103 3.18528 14.021 3.16698 14.0352 3.14719C14.0494 3.1273 14.0661 3.1073 14.0851 3.08802C14.1042 3.06874 14.1241 3.05177 14.144 3.03717C14.1639 3.02264 14.1823 3.01152 14.1981 3.00319C14.2294 2.98677 14.2479 2.98253 14.2441 2.98348C14.2424 2.98391 14.2363 2.98538 14.2247 2.98726C14.2132 2.98915 14.1973 2.99128 14.1764 2.99324C14.1554 2.99521 14.1304 2.99692 14.1008 2.99812C14.0711 2.99933 14.0377 3 14 3V5C14.4122 5 15.0454 4.96145 15.5075 4.49408C15.9666 4.02966 16 3.3993 16 3H14ZM1.00489 16.9013C0.918834 17.7686 1.15768 18.496 1.50109 19.0182C1.67019 19.2753 1.87229 19.4945 2.08871 19.6594C2.26378 19.7928 2.59437 20.0031 3.00766 20L2.99234 18C3.14283 17.9989 3.24078 18.0399 3.26591 18.0509C3.30007 18.066 3.31069 18.076 3.30075 18.0685C3.28109 18.0535 3.22948 18.0064 3.17211 17.9192C3.06258 17.7527 2.95741 17.4788 2.99511 17.0987L1.00489 16.9013ZM0.00410679 6.09054L1.00411 17.0905L2.99589 16.9095L1.99589 5.90946L0.00410679 6.09054ZM14 5H1V7H14V5ZM13.9959 17.0905L14.9959 6.09054L13.0041 5.90946L12.0041 16.9095L13.9959 17.0905ZM11.9928 20C12.3991 20.0029 12.7284 19.8039 12.9143 19.665C13.1362 19.4992 13.342 19.278 13.5128 19.0182C13.8602 18.49 14.0928 17.7566 13.9936 16.8866L12.0064 17.1134C12.0495 17.4908 11.9474 17.7587 11.8418 17.9192C11.7862 18.0037 11.736 18.0488 11.7172 18.0628C11.7078 18.0699 11.7181 18.0603 11.7512 18.0461C11.7771 18.0351 11.868 17.999 12.0072 18L11.9928 20ZM3 20H12V18H3V20Z" fill="black" mask="url(#path-1-inside-1_0_1760)"/>
</g>
<defs>
<clipPath id="clip0_0_1760">
<rect width="15" height="19" fill="white"/>
</clipPath>
</defs>
</svg>
