<svg width="43" height="57" viewBox="0 0 43 57" fill="none" xmlns="http://www.w3.org/2000/svg">
<path fill-rule="evenodd" clip-rule="evenodd" d="M39.9855 32.2158C41.9002 29.0276 43 25.302 43 21.3216C43 9.54603 33.3741 0 21.5 0C9.62588 0 0 9.54603 0 21.3216C0 26.7914 2.07683 31.78 5.49113 35.5544L21.3145 57L37.4661 35.6016C38.3479 34.6325 39.1414 33.5827 39.8338 32.4647L40.0216 32.2158H39.9855Z" fill="#E52931"/>
<path fill-rule="evenodd" clip-rule="evenodd" d="M32.7314 24.028C30.9477 32.4793 21.5352 35.6995 15.0128 31.1885C9.9698 27.7007 8.74905 20.9616 11.4443 15.905C11.4492 15.8958 11.4544 15.8868 11.4594 15.8776C11.5192 15.7663 11.5842 15.6569 11.6477 15.5471C12.0562 14.8554 12.5257 14.2086 13.0547 13.6158C13.1277 13.535 13.2008 13.454 13.2766 13.3747C13.3109 13.338 13.3454 13.3014 13.3802 13.2653C13.4191 13.2277 13.4514 13.1953 13.4749 13.1679C15.773 10.8531 19.0771 9.50777 23.3328 9.85951C25.778 10.1841 27.9451 11.3611 29.8105 13.3226C32.6694 16.3289 33.5816 19.9992 32.7314 24.028ZM39.7936 18.7393C39.1234 14.1355 36.9692 10.3 33.3997 7.30948C30.4727 4.85687 27.1544 3.49832 23.5039 3.11883V3.11452C16.5862 2.37652 10.2747 5.24252 6.48664 10.6413C6.40618 10.7544 6.32695 10.8682 6.24896 10.9828C6.22646 11.0165 6.20395 11.0497 6.18176 11.0837C3.44369 15.1787 2.33175 20.3518 3.40269 25.2555C5.54949 35.0854 14.7705 41.3316 24.6549 39.6725C34.4201 38.0334 41.2736 28.9021 39.7936 18.7393Z" fill="#FEFEFE"/>
</svg>
