<svg width="50" height="50" viewBox="0 0 50 50" fill="none" xmlns="http://www.w3.org/2000/svg">
<path fill-rule="evenodd" clip-rule="evenodd" d="M18.7877 1.81776C31.5909 -1.61284 44.751 5.98514 48.1816 18.7883C51.6122 31.5915 44.0142 44.7516 31.211 48.1822C18.4078 51.6128 5.24773 44.0148 1.81713 31.2116C-1.61348 18.4085 5.9845 5.24837 18.7877 1.81776ZM19.1759 3.26665C7.17293 6.48284 0.0498238 18.8204 3.26601 30.8234C6.48221 42.8264 18.8198 49.9495 30.8228 46.7333C42.8258 43.5171 49.9489 31.1795 46.7327 19.1766C43.5165 7.17357 31.1789 0.0504599 19.1759 3.26665ZM33.5094 21.9384L13.2129 27.3769L13.6023 28.8303L33.8988 23.3918L29.1164 31.6614L31.2904 31.0789L36.5891 21.889L27.4081 16.59L25.2341 17.1725L33.5094 21.9384Z" fill="white"/>
</svg>
