<svg width="20" height="29" viewBox="0 0 20 29" fill="none" xmlns="http://www.w3.org/2000/svg">
<g clip-path="url(#clip0_0_636)">
<g clip-path="url(#clip1_0_636)">
<path fill-rule="evenodd" clip-rule="evenodd" d="M18.7545 19.3309C17.7255 17.395 15.3692 16.7363 13.5313 17.8828L12.8336 18.3151C12.8336 18.3151 11.9178 16.7458 11.1944 15.0077C10.4711 13.2697 8.9977 9.64736 8.9977 9.64736L9.78797 9.15194C11.583 8.03215 12.1996 5.61418 11.1944 3.7031L10.4569 2.01639C9.43085 0.0858661 7.08193 -0.577194 5.24307 0.549455L2.57643 2.21839C-0.429841 4.10501 0.090857 10.3608 4.10951 17.8924C8.17192 25.4807 12.3552 29.5188 15.4534 27.586C15.4782 27.5687 15.5012 27.5526 15.523 27.5373C15.5952 27.4867 15.6547 27.445 15.7253 27.3978C15.7985 27.361 15.8233 27.3487 15.8572 27.3326L15.9923 27.2586L18.1095 25.9367C19.9082 24.7947 20.522 22.3819 19.5118 20.4616L18.7545 19.3309ZM14.913 19.5251C15.4799 19.1817 16.1756 19.3705 16.4958 19.9553L17.8323 22.3663C18.1808 23.0161 17.9615 23.8477 17.3486 24.2256L15.0901 25.5945C15.0551 25.6112 15.0168 25.6298 14.9657 25.6548C14.8849 25.6943 14.8575 25.7074 14.8201 25.7247L14.6275 25.8136L14.467 25.9524C14.4529 25.9646 14.4302 25.9813 14.3517 26.0356C13.3164 26.6594 9.72896 23.3088 6.09639 16.7211C4.39651 13.628 3.93736 11.3169 3.4504 8.86577C3.3943 8.58338 3.33783 8.29913 3.27905 8.01162C2.79477 5.64285 2.97616 4.15831 3.3359 3.93913L6.2646 2.15947C6.81946 1.82949 7.52108 2.02178 7.84161 2.60726L9.18228 5.02571C9.52701 5.66219 9.30932 6.49095 8.70447 6.85729L6.74368 8.05072L5.67341 8.70214L6.12372 9.87102C6.12372 9.87102 6.97687 12.7912 8.15453 15.3248C9.33218 17.8583 10.9775 20.3131 10.9775 20.3131L11.7896 21.4038L14.913 19.5251Z" fill="black"/>
</g>
</g>
<defs>
<clipPath id="clip0_0_636">
<rect width="19.3449" height="28.066" fill="white" transform="translate(0.652344)"/>
</clipPath>
<clipPath id="clip1_0_636">
<rect width="19.3449" height="28.066" fill="white" transform="translate(0.652344)"/>
</clipPath>
</defs>
</svg>
