<svg width="27" height="23" viewBox="0 0 27 23" fill="none" xmlns="http://www.w3.org/2000/svg">
<path fill-rule="evenodd" clip-rule="evenodd" d="M1.26045 9.38869L25.1771 0.149963C26.2695 -0.346561 27.3238 0.412903 26.9068 2.08723L22.834 21.3092C22.5497 22.6752 21.7253 23.002 20.5835 22.3712L14.3789 17.78L14.2562 17.8994C12.849 19.2697 11.6103 20.4759 11.3967 20.6853C11.389 20.6928 11.3814 20.7003 11.3738 20.7077C11.0386 21.0359 10.7619 21.3069 10.155 21.3069C9.52503 21.3069 9.47248 21.1202 9.3459 20.6706C9.31089 20.5463 9.27022 20.4018 9.21011 20.2356L6.92781 13.2276L0.962922 11.363C-0.362214 10.9565 -0.371895 10.0446 1.26045 9.38869ZM21.3088 4.30389L7.86393 12.7992L10.1295 19.7557L10.5778 14.9674L22.0901 4.56461C22.5954 4.1154 21.98 3.89623 21.3088 4.30389Z" fill="#2CA9EE"/>
</svg>
