<svg width="24" height="24" viewBox="0 0 24 24" fill="none" xmlns="http://www.w3.org/2000/svg">
<path fill-rule="evenodd" clip-rule="evenodd" d="M18.3474 14.953C18.335 15.3556 18.2295 15.7428 18.0832 16.115C17.9572 16.436 17.7056 16.662 17.4303 16.8628C17.0482 17.1414 16.6317 17.3537 16.1708 17.4595C15.62 17.5859 15.0775 17.5978 14.5196 17.4142C13.6671 17.1338 12.833 16.8131 12.0296 16.4202C11.6453 16.2323 11.2913 15.9812 10.9309 15.7476C10.3854 15.3942 9.90089 14.9643 9.45429 14.4974C9.10893 14.1363 8.79058 13.7487 8.47457 13.3614C8.23718 13.0704 8.00312 12.7732 7.80241 12.457C7.49568 11.9739 7.16216 11.5077 6.90671 10.991C6.71172 10.5967 6.54809 10.1932 6.44386 9.77034C6.37244 9.48066 6.35912 9.17684 6.31982 8.87931C6.32684 8.32464 6.44476 7.80008 6.69976 7.31383C6.81723 7.08981 6.9824 6.88913 7.1368 6.68601C7.22664 6.56787 7.33525 6.46326 7.44005 6.35712C7.74112 6.05228 8.09506 5.90515 8.53268 5.98615C8.67447 6.0124 8.82253 6.01728 8.96719 6.0131C9.15475 6.00769 9.30118 6.08306 9.38249 6.23762C9.49118 6.4442 9.5769 6.66361 9.66086 6.88193C9.89876 7.50047 10.1207 8.12528 10.3691 8.73956C10.5068 9.08014 10.4193 9.36472 10.2081 9.62528C10.0103 9.86925 9.79581 10.1007 9.57855 10.3281C9.33925 10.5786 9.31292 10.7002 9.4904 10.992C9.69584 11.3297 9.89003 11.6769 10.1249 11.9938C10.5097 12.5131 10.9293 13.0068 11.451 13.4001C11.7806 13.6487 12.1132 13.8948 12.4584 14.121C12.6645 14.256 12.8981 14.3496 13.1186 14.4631C13.2293 14.52 13.3363 14.5842 13.4492 14.6361C13.5156 14.6666 13.5895 14.6834 13.6615 14.6993C13.8897 14.7499 14.0136 14.5944 14.1422 14.4526C14.2979 14.2809 14.4521 14.1079 14.6046 13.9335C14.7321 13.7877 14.8552 13.6381 14.9823 13.492C15.0474 13.4171 15.1107 13.3386 15.1863 13.2754C15.3101 13.1721 15.4554 13.1905 15.5868 13.253C15.9717 13.4361 16.3538 13.6253 16.7338 13.8182C17.1358 14.0222 17.5355 14.2307 17.9334 14.4423C18.0388 14.4984 18.1347 14.5723 18.2341 14.6394C18.3475 14.7159 18.3508 14.8451 18.3474 14.953ZM23.9691 10.973C23.8995 10.4556 23.8546 9.93369 23.7564 9.42183C23.6646 8.94273 23.5368 8.46791 23.3876 8.00301C23.2519 7.58062 23.0792 7.16837 22.8981 6.7625C22.771 6.47738 22.6063 6.20822 22.4512 5.93601C22.3105 5.68922 22.1734 5.43877 22.0112 5.20606C21.6452 4.6809 21.2594 4.17116 20.8126 3.70768C20.3267 3.20367 19.8176 2.72808 19.2437 2.32405C18.9362 2.10753 18.6344 1.88087 18.3135 1.68569C17.9747 1.47963 17.6244 1.28786 17.264 1.12227C16.8549 0.934319 16.4341 0.768308 16.0091 0.618986C15.6545 0.494422 15.2908 0.387567 14.9234 0.309282C14.4548 0.209451 13.9797 0.137044 13.505 0.0694446C12.7836 -0.0332503 12.0549 -0.000396889 11.3329 0.0316346C10.7786 0.0561937 10.2277 0.183697 9.67804 0.280763C9.09343 0.383956 8.53639 0.582072 7.98045 0.786715C7.27654 1.04583 6.61452 1.3845 5.98221 1.78094C5.63239 2.00027 5.28566 2.22863 4.96147 2.48304C4.62373 2.74808 4.30065 3.03532 3.99697 3.3384C3.64314 3.69159 3.29843 4.05736 2.98375 4.44488C2.51721 5.01937 2.12405 5.64409 1.77551 6.29842C1.50667 6.80312 1.28269 7.32576 1.09139 7.86076C0.889185 8.42617 0.731516 9.00799 0.638124 9.60174C0.567277 10.0521 0.517672 10.5073 0.487301 10.9622C0.458386 11.3952 0.440856 11.832 0.464405 12.2647C0.503001 12.975 0.581998 13.6813 0.759504 14.3758C0.909574 14.9631 1.08653 15.5388 1.31489 16.1007C1.53293 16.6373 1.7879 17.1537 2.08937 17.6486C2.11979 17.6985 2.12175 17.7845 2.10239 17.8423C1.9485 18.3029 1.78482 18.7603 1.6269 19.2197C1.45165 19.7295 1.27768 20.2398 1.10609 20.7509C0.888759 21.3984 0.677046 22.0477 0.457809 22.6945C0.309795 23.1312 0.152929 23.5649 0 24H0.150346C0.396793 23.9084 0.641735 23.8125 0.890188 23.7266C1.07773 23.6618 1.27008 23.6109 1.45967 23.5519C1.94562 23.4006 2.43217 23.2511 2.91666 23.0955C3.33434 22.9614 3.74827 22.8157 4.16622 22.6824C4.57593 22.5517 4.98913 22.4319 5.39984 22.3042C5.74765 22.1961 6.09334 22.0811 6.44205 21.976C6.49434 21.9602 6.56755 21.9641 6.61505 21.989C7.1991 22.2954 7.79727 22.5719 8.42752 22.768C8.93238 22.9251 9.44451 23.0627 9.95982 23.1817C10.2769 23.2548 10.6063 23.2745 10.9297 23.3218C11.496 23.4048 12.0669 23.4176 12.6355 23.3896C13.1309 23.3652 13.6271 23.3104 14.1167 23.2309C14.6097 23.1509 15.0968 23.0315 15.5828 22.914C15.7912 22.8637 15.9917 22.7787 16.193 22.7022C16.4908 22.5891 16.7952 22.488 17.0804 22.3485C17.5149 22.136 17.9398 21.9026 18.3604 21.6635C18.6189 21.5165 18.8733 21.3571 19.1091 21.1768C19.48 20.8932 19.8373 20.5916 20.1938 20.2899C20.6609 19.8945 21.0671 19.4405 21.4364 18.9556C21.6881 18.625 21.926 18.2835 22.1592 17.9396C22.3163 17.708 22.4747 17.4735 22.5967 17.2231C22.8182 16.7679 23.0144 16.3006 23.2184 15.8371C23.2797 15.6976 23.3424 15.5571 23.3863 15.4117C23.561 14.8329 23.7419 14.2551 23.8176 13.6524C23.8704 13.2323 23.9184 12.8116 23.9701 12.3914C23.9727 12.3697 23.9897 12.3498 24 12.3291V11.06C23.9894 11.031 23.9731 11.0028 23.9691 10.973Z" fill="#00A884"/>
</svg>
