<svg width="27" height="16" viewBox="0 0 27 16" fill="none" xmlns="http://www.w3.org/2000/svg">
<path d="M25.9405 0.691944H21.5591C21.1948 0.691941 20.8599 0.89789 20.6876 1.22796C20.6876 1.22796 18.9402 4.53653 18.3788 5.65092C16.8688 8.64876 15.8909 7.70763 15.8909 6.31631V1.519C15.8909 0.684215 15.2327 0.00748684 14.4207 0.00748684H11.1265C10.2143 -0.0622364 9.3321 0.358622 8.79495 1.11973C8.79495 1.11973 10.4677 0.841676 10.4677 3.15884C10.4677 3.73342 10.4965 5.38638 10.5227 6.77277C10.5329 7.19123 10.288 7.57177 9.90949 7.72595C9.53095 7.88012 9.09905 7.77519 8.82768 7.46313C7.4793 5.53513 6.36239 3.44674 5.50123 1.24334C5.3502 0.90676 5.02236 0.691405 4.66181 0.691944C3.71162 0.691944 1.81021 0.691944 0.681029 0.691944C0.458757 0.690389 0.249927 0.801199 0.122402 0.988365C-0.00512269 1.17553 -0.035066 1.41516 0.0423029 1.62939C1.25106 5.03807 6.458 15.75 12.4012 15.75H14.9027C15.4485 15.75 15.8909 15.2951 15.8909 14.734V13.1811C15.8909 12.783 16.1211 12.4229 16.4765 12.2648C16.8319 12.1068 17.2447 12.1809 17.527 12.4535L20.5211 15.3456C20.79 15.6054 21.1451 15.75 21.514 15.75H25.4458C27.3421 15.75 27.3421 14.3972 26.3082 13.3504C25.5806 12.6137 22.955 9.76843 22.955 9.76843C22.4904 9.27363 22.4461 8.50449 22.8506 7.95677C23.6993 6.80858 25.0875 4.92908 25.6762 4.12391C26.4808 3.02338 27.9372 0.691944 25.9405 0.691944Z" fill="#0577FF"/>
</svg>
