<svg width="24" height="26" viewBox="0 0 24 26" fill="none" xmlns="http://www.w3.org/2000/svg">
<path fill-rule="evenodd" clip-rule="evenodd" d="M20.1636 8.46805C19.9496 7.58406 19.8281 7.08232 19.5115 6.79754C19.0959 6.42374 18.3441 6.42374 16.6055 6.42374H15.7796V4.32248C15.7796 1.95475 13.8524 0 11.4571 0C9.06185 0 7.13463 1.92722 7.13463 4.32248V6.42374H6.30868C4.53274 6.42374 3.73219 6.42374 3.29315 6.82214C2.9328 7.14913 2.816 7.7445 2.60332 8.82853C2.54486 9.12648 2.47917 9.46133 2.39918 9.83767L0 26H23.125L20.515 9.83767C20.3653 9.30126 20.2559 8.84914 20.1636 8.46805ZM9.11117 3.65581C9.11117 2.81108 10.3924 1.65442 11.3924 1.65442C12.3924 1.65442 13.9091 2.81108 13.9091 3.65581V6.42374H9.11117V3.65581ZM4.40776 8.05154L1.7758 24.2117H21.009L18.2824 8.05154H15.7796L15.7521 11.5722C15.7521 12.1503 15.284 12.6184 14.7058 12.6184C14.1277 12.6184 13.9091 12.1503 13.9091 11.5722V8.05154H9.11117V11.5722C9.11117 12.1503 8.759 12.6459 8.18084 12.6459C7.60267 12.6459 7.13463 12.1779 7.13463 11.5997V8.05154H4.40776Z" fill="black"/>
</svg>
