<svg width="25" height="22" viewBox="0 0 25 22" fill="none" xmlns="http://www.w3.org/2000/svg">
<path fill-rule="evenodd" clip-rule="evenodd" d="M12.1756 2.93762L12.0462 3.10694L11.9561 2.98731L11.758 2.74583L11.6184 2.58728L11.4525 2.40877L11.2608 2.2142L11.0438 2.00751L10.8021 1.79261C9.53258 0.704172 7.3557 -0.544742 4.57104 0.252671C0.0228024 1.54808 -5.38753 9.9929 12.0462 21.8566C25.6469 12.6029 25.3453 5.42913 22.3976 2.10592L22.1658 1.85791C21.9292 1.61756 21.6786 1.40026 21.4192 1.20682L21.1571 1.02136C20.6277 0.666472 20.0698 0.408092 19.5245 0.252671C16.5542 -0.597903 14.274 0.879789 13.0494 2.00751L12.8323 2.2142L12.6404 2.40877C12.6105 2.43997 12.5818 2.4705 12.5541 2.50028L12.3346 2.74583L12.1756 2.93762ZM14.818 3.12641C16.0798 2.13549 17.4484 1.73856 18.9739 2.17539C20.7822 2.69074 22.1971 4.56701 22.0331 6.95436L22.0155 7.16113C21.6726 10.5547 18.5784 14.7422 12.1412 19.3517L12.046 19.418L11.5537 19.0644C5.259 14.4744 2.29151 10.3138 2.06067 6.95442C1.89661 4.5669 3.31168 2.69089 5.11888 2.17618C6.64695 1.7386 8.01453 2.13539 9.27508 3.126C9.60996 3.38916 9.90675 3.67313 10.1578 3.95411L10.3004 4.11882L10.3882 4.22779L12.0453 6.57955L13.6809 4.25923L13.7916 4.11956L13.9343 3.95478C14.1857 3.67371 14.4828 3.38965 14.818 3.12641Z" fill="#979797"/>
<path d="M12.0435 10.0522L8.77514 5.41108L8.66559 5.28682C8.48877 5.08895 8.27572 4.88511 8.03839 4.6986C7.2416 4.07243 6.50627 3.85909 5.66582 4.09976C4.7413 4.36307 3.95779 5.4018 4.05506 6.81739C4.20786 9.04099 6.04818 11.9546 10.0072 15.3149L10.65 15.8491C10.9802 16.118 11.3239 16.3897 11.681 16.6639L12.0451 16.9401C17.3037 12.9799 19.7525 9.54461 20.0221 6.98659L20.0369 6.81736C20.1341 5.40177 19.3506 4.36271 18.4224 4.09819C17.5871 3.859 16.8505 4.07264 16.0524 4.69942C15.8741 4.83943 15.7095 4.98919 15.5636 5.13887L15.3777 5.34062L15.3113 5.41714L12.0435 10.0522Z" fill="#ED222E"/>
</svg>
