<svg width="26" height="24" viewBox="0 0 26 24" fill="none" xmlns="http://www.w3.org/2000/svg">
<path fill-rule="evenodd" clip-rule="evenodd" d="M13.7754 2.07675L14.0126 1.88495C15.9351 0.375149 18.2043 -0.282978 20.7122 0.435205C23.7757 1.30827 26.0903 4.37757 25.8312 8.14968C25.5105 12.8177 21.5389 18.0756 13.4791 23.5593L13.0009 23.8847L12.0872 23.2604L11.2405 22.664C4.04184 17.5036 0.475405 12.5628 0.172161 8.14978C-0.0870672 4.37725 2.22797 1.30813 5.29182 0.4355C7.80091 -0.282998 10.0695 0.375192 11.9909 1.88513C12.3165 2.14105 12.6037 2.3973 12.8514 2.64152L13.0007 2.79299L13.1515 2.64127C13.3374 2.45813 13.5455 2.26821 13.7754 2.07675ZM24.1352 8.03317C24.3376 5.08705 22.5596 2.72938 20.2452 2.06981C18.3229 1.51933 16.5909 2.02166 15.0625 3.22195C14.6713 3.52923 14.326 3.85931 14.0319 4.18812L13.8793 4.3638L13.7261 4.55496L13.0006 5.58278L12.306 4.59629L12.1838 4.43753L11.9701 4.18783C11.6763 3.85906 11.3314 3.52902 10.9404 3.22178C9.41324 2.02162 7.6821 1.51935 5.75866 2.07015C3.44392 2.72942 1.6657 5.08686 1.86816 8.03324C2.13627 11.9349 5.54273 16.5764 12.6434 21.5755L13.0007 21.825L13.3587 21.5754C20.3239 16.6727 23.7347 12.1138 24.1162 8.2591L24.1352 8.03317Z" fill="black"/>
</svg>
