<svg width="23" height="30" viewBox="0 0 23 30" fill="none" xmlns="http://www.w3.org/2000/svg">
<path fill-rule="evenodd" clip-rule="evenodd" d="M23 11.4738C23 5.13643 17.8507 0 11.5 0C5.14928 0 0 5.13643 0 11.4738C0 14.3375 1.0568 17.0396 2.93374 19.1291L10.6031 29.5915L10.6821 29.6867C11.0992 30.1309 11.8317 30.1033 12.2092 29.6003L20.1023 19.0831L20.308 18.8501C20.6512 18.4475 20.994 17.9763 21.2995 17.4812L21.3486 17.421L21.4086 17.3311L21.4343 17.2851L21.4573 17.2386L21.491 17.155L21.5772 17.006C22.505 15.3272 23 13.4356 23 11.4738ZM2 11.4738C2 6.24212 6.25274 2 11.5 2C16.7473 2 21 6.24212 21 11.4738L20.9929 11.8432L20.9718 12.2101C20.8592 13.6725 20.4119 15.069 19.6687 16.3135L19.636 16.374L19.4349 16.6858L19.2234 16.9907C19.0105 17.2862 18.7926 17.5555 18.5605 17.8125L11.418 27.322L4.48396 17.8693L4.25862 17.6089C2.79019 15.8542 2 13.7264 2 11.4738ZM11.5 6.10971C14.468 6.10971 16.875 8.51073 16.875 11.4738C16.875 14.4368 14.468 16.8379 11.5 16.8379C8.53203 16.8379 6.125 14.4368 6.125 11.4738C6.125 8.51073 8.53203 6.10971 11.5 6.10971ZM8.125 11.4738C8.125 9.61642 9.63548 8.10971 11.5 8.10971C13.3645 8.10971 14.875 9.61642 14.875 11.4738C14.875 13.3312 13.3645 14.8379 11.5 14.8379C9.63548 14.8379 8.125 13.3312 8.125 11.4738Z" fill="black"/>
</svg>
