<svg width="17" height="28" viewBox="0 0 17 28" fill="none" xmlns="http://www.w3.org/2000/svg">
<path fill-rule="evenodd" clip-rule="evenodd" d="M8.49819 0C5.16826 0 2.42331 2.79803 2.42331 6.29556C2.42331 9.74646 5.12326 12.5911 8.49819 12.5911C11.8731 12.5911 14.5731 9.7931 14.5731 6.29556C14.5731 2.79803 11.8281 0 8.49819 0ZM8.49819 8.39408C7.37321 8.39408 6.47323 7.46141 6.47323 6.29556C6.47323 5.12972 7.37321 4.19704 8.49819 4.19704C9.62317 4.19704 10.5231 5.12972 10.5231 6.29556C10.5231 7.46141 9.62317 8.39408 8.49819 8.39408ZM11.1081 18.6069C12.7731 18.3271 14.4381 17.7208 15.968 16.8348C16.913 16.2752 17.273 15.0627 16.778 14.0368C16.283 13.0575 15.0681 12.6844 14.1231 13.244C10.6581 15.2026 6.38323 15.2026 2.9633 13.1974C2.01832 12.6378 0.803342 12.9642 0.263352 13.9435C-0.276637 14.9694 0.0383566 16.1819 0.983338 16.7415C2.46831 17.6276 4.13328 18.1872 5.79824 18.5136L1.11834 24.576C0.578346 25.2755 0.533347 26.4414 1.02834 27.1409C1.43333 27.7005 2.01832 27.9803 2.60331 27.9803C3.18829 27.9803 3.72828 27.7471 4.13328 27.2341L8.45319 21.6847L12.8181 27.2341C13.6281 28.3067 15.2481 28.2601 16.013 27.0476C16.508 26.3015 16.373 25.3222 15.833 24.6226L11.1081 18.6069Z" fill="#EE7A04"/>
</svg>
