<svg width="51" height="22" viewBox="0 0 51 22" fill="none" xmlns="http://www.w3.org/2000/svg">
<path fill-rule="evenodd" clip-rule="evenodd" d="M-0.00131226 0.475504C1.74421 -0.53649 4.61013 0.297986 5.83644 0.851352C10.2851 2.85562 14.4982 6.43052 18.5771 9.89143C23.2174 13.8302 27.6005 17.8141 31.3348 18.3146L31.462 18.3356C33.3379 18.702 37.1287 18.8344 38.5557 18.8347H38.6483C41.5929 18.8347 46.5319 18.4409 47.0508 18.3882C48.2645 18.2654 47.6961 17.6303 47.2597 17.4438C45.3746 16.4045 41.7978 15.2957 36.4171 13.8353C34.6981 14.2777 30.3428 15.551 27.0701 12.9156L26.7334 12.6444C31.6521 13.4561 34.8079 11.8749 35.9467 11.15L36.3937 10.993L37.0744 11.2025C43.509 13.1832 46.3268 14.2982 48.5722 15.5944C49.6561 16.2078 50.8754 17.5096 50.7577 18.7313C50.6636 19.7034 49.796 20.8006 46.1974 21.1347L46.1578 21.138C45.7214 21.1717 41.8024 21.4666 38.6469 21.4666H38.5546C36.7406 21.4663 33.9155 21.5971 31.6207 21.1624C26.7104 20.4746 21.9308 16.4174 16.8677 12.1196C13.2271 9.03086 8.63403 5.65242 5.05136 4.62474C6.37242 12.9842 6.22984 21.2058 6.22984 21.2058L3.90114 21.1937C3.90114 21.1937 3.39778 3.86202 -0.00131226 0.475504Z" fill="#DDDDDD"/>
</svg>
